<?xml version="1.0" encoding="iso-8859-1"?>
<!-- Generator: Adobe Illustrator 19.0.0, SVG Export Plug-In . SVG Version: 6.00 Build 0)  -->
<svg xmlns="http://www.w3.org/2000/svg" xmlns:xlink="http://www.w3.org/1999/xlink" version="1.1" id="Capa_1" x="0px" y="0px" viewBox="0 0 512.002 512.002" style="enable-background:new 0 0 512.002 512.002;" xml:space="preserve">
<rect x="40.112" y="151.21" style="fill:#3E4356;" width="431.246" height="48.413"/>
<rect x="40.112" y="104.037" style="fill:#474B63;" width="431.246" height="49.413"/>
<path style="fill:#E3E5E5;" d="M474.527,69.896H37.475C20.946,69.896,7.5,83.342,7.5,99.869v102.71  c0,16.527,13.446,29.974,29.975,29.974h61.35v-35.141H42.644v-92.376h426.715v92.376h-56.183v35.141h61.352  c16.526,0,29.973-13.446,29.973-29.974V99.869C504.5,83.342,491.053,69.896,474.527,69.896z"/>
<path style="fill:#D6D6D6;" d="M42.503,202.579V99.869c0-16.527,13.446-29.974,29.975-29.974H37.475  C20.946,69.896,7.5,83.342,7.5,99.869v102.71c0,16.527,13.446,29.974,29.975,29.974h35.002  C55.948,232.553,42.503,219.107,42.503,202.579z"/>
<path style="fill:#3BBC56;" d="M96.825,153.446v137.814c0,10.961,8.886,19.845,19.845,19.845h278.661  c10.961,0,19.845-8.885,19.845-19.845V153.446H96.825z"/>
<path style="fill:#2EAF43;" d="M116.826,291.261V153.446H96.825v137.814c0,10.961,8.886,19.845,19.845,19.845h20.001  C125.712,311.105,116.826,302.221,116.826,291.261z"/>
<path style="fill:#77E584;" d="M292.201,153.446h-72.398c-20.545,12.32-34.301,34.8-34.301,60.501  c0,38.937,31.564,70.501,70.5,70.501s70.501-31.564,70.501-70.501C326.502,188.246,312.746,165.766,292.201,153.446z"/>
<path style="fill:#54DD6B;" d="M205.547,213.947c0-25.7,13.756-48.181,34.301-60.501h-20.046  c-20.545,12.32-34.301,34.8-34.301,60.501c0,42.679,37.741,75.871,80.524,69.779C231.837,278.858,205.547,249.479,205.547,213.947z"/>
<path id="SVGCleanerId_0" style="fill:#3BBC56;" d="M415.175,356.761c0,10.961-8.885,19.845-19.845,19.845H116.67  c-10.96,0-19.845-8.885-19.845-19.845V202.132c0-10.96,8.886-19.844,19.845-19.844h278.661c10.961,0,19.845,8.885,19.845,19.844  v154.628H415.175z"/>
<path id="SVGCleanerId_1" style="fill:#8DD83D;" d="M292.201,339.948c-10.583,6.345-22.962,10.001-36.199,10.001  c-13.237,0-25.617-3.655-36.199-10.001H96.825v16.814c0,10.961,8.886,19.845,19.845,19.845h278.661  c10.961,0,19.845-8.885,19.845-19.845v-16.814H292.201z"/>
<path id="SVGCleanerId_2" style="fill:#8DD83D;" d="M395.331,182.288H116.67c-10.96,0-19.845,8.885-19.845,19.844v16.814h122.976  c22.234-13.331,50.128-13.354,72.398,0h122.975v-16.814C415.175,191.173,406.292,182.288,395.331,182.288z"/>
<circle style="fill:#54DD6B;" cx="256.005" cy="279.448" r="70.504"/>
<path style="fill:#F5F5F5;" d="M264.501,271.822v-14.778h11.113c4.142,0,7.5-3.358,7.5-7.5c0-4.142-3.358-7.5-7.5-7.5h-11.113  v-6.556c0-4.142-3.358-7.5-7.5-7.5c-4.142,0-7.5,3.358-7.5,7.5v6.556c-14.58,0-23.501,10.811-23.501,22.39  c0,12.346,10.045,22.39,22.39,22.39h1.111v14.778h-11.112c-4.142,0-7.5,3.358-7.5,7.5s3.358,7.5,7.5,7.5H249.5v6.556  c0,4.142,3.358,7.5,7.5,7.5c4.142,0,7.5-3.358,7.5-7.5v-6.556c14.575,0,23.501-10.803,23.501-22.39  C288.002,282.873,279.344,271.822,264.501,271.822z M248.389,271.822c-9.25,0-10.773-14.778,1.111-14.778v14.778H248.389z   M265.614,301.601h-1.112v-14.778h1.112c4.074,0,7.388,3.314,7.388,7.389C273.002,298.286,269.687,301.601,265.614,301.601z"/>
<g>
	<path id="SVGCleanerId_0_1_" style="fill:#3BBC56;" d="M415.175,356.761c0,10.961-8.885,19.845-19.845,19.845H116.67   c-10.96,0-19.845-8.885-19.845-19.845V202.132c0-10.96,8.886-19.844,19.845-19.844h278.661c10.961,0,19.845,8.885,19.845,19.844   v154.628H415.175z"/>
</g>
<path style="fill:#2EAF43;" d="M116.826,356.761V202.132c0-10.96,8.886-19.844,19.845-19.844H116.67  c-10.96,0-19.845,8.885-19.845,19.844v154.628c0,10.961,8.886,19.845,19.845,19.845h20.001  C125.712,376.606,116.826,367.721,116.826,356.761z"/>
<g>
	<path id="SVGCleanerId_1_1_" style="fill:#8DD83D;" d="M292.201,339.948c-10.583,6.345-22.962,10.001-36.199,10.001   c-13.237,0-25.617-3.655-36.199-10.001H96.825v16.814c0,10.961,8.886,19.845,19.845,19.845h278.661   c10.961,0,19.845-8.885,19.845-19.845v-16.814H292.201z"/>
</g>
<path style="fill:#83CC2F;" d="M116.826,356.761v-16.814H96.825v16.814c0,10.961,8.886,19.845,19.845,19.845h20.001  C125.712,376.606,116.826,367.721,116.826,356.761z"/>
<g>
	<path id="SVGCleanerId_2_1_" style="fill:#8DD83D;" d="M395.331,182.288H116.67c-10.96,0-19.845,8.885-19.845,19.844v16.814   h122.976c22.234-13.331,50.128-13.354,72.398,0h122.975v-16.814C415.175,191.173,406.292,182.288,395.331,182.288z"/>
</g>
<path style="fill:#83CC2F;" d="M116.826,202.132c0-10.96,8.886-19.844,19.845-19.844H116.67c-10.96,0-19.845,8.885-19.845,19.844  v16.814h20.001C116.826,218.946,116.826,202.132,116.826,202.132z"/>
<circle style="fill:#77E584;" cx="256.005" cy="279.448" r="70.504"/>
<path style="fill:#54DD6B;" d="M205.501,279.447c0-35.54,26.302-64.924,60.5-69.782c-42.822-6.083-80.501,27.16-80.501,69.782  c0,38.937,31.564,70.5,70.5,70.5c3.396,0,6.732-0.254,10.001-0.719C231.803,344.371,205.501,314.988,205.501,279.447z"/>
<path style="fill:#3BBC56;" d="M415.175,422.261c0,10.961-8.885,19.845-19.845,19.845H116.67c-10.96,0-19.845-8.885-19.845-19.845  V267.632c0-10.96,8.886-19.844,19.845-19.844h278.661c10.961,0,19.845,8.885,19.845,19.844v154.628H415.175z"/>
<path style="fill:#2EAF43;" d="M116.826,422.261V267.632c0-10.96,8.886-19.844,19.845-19.844H116.67  c-10.96,0-19.845,8.885-19.845,19.844v154.628c0,10.961,8.886,19.845,19.845,19.845h20.001  C125.712,442.106,116.826,433.221,116.826,422.261z"/>
<path style="fill:#8DD83D;" d="M292.201,405.448c-22.235,13.332-50.128,13.353-72.399,0H96.825v16.814  c0,10.961,8.886,19.845,19.845,19.845h278.661c10.961,0,19.845-8.885,19.845-19.845v-16.814H292.201z"/>
<path style="fill:#83CC2F;" d="M116.826,422.261v-16.814H96.825v16.814c0,10.961,8.886,19.845,19.845,19.845h20.001  C125.712,442.106,116.826,433.221,116.826,422.261z"/>
<path style="fill:#8DD83D;" d="M395.331,247.788H116.67c-10.96,0-19.845,8.885-19.845,19.844v16.814h122.976  c22.234-13.331,50.128-13.354,72.398,0h122.975v-16.814C415.175,256.673,406.292,247.788,395.331,247.788z"/>
<path style="fill:#83CC2F;" d="M116.826,267.632c0-10.96,8.886-19.844,19.845-19.844H116.67c-10.96,0-19.845,8.885-19.845,19.844  v16.814h20.001C116.826,284.446,116.826,267.632,116.826,267.632z"/>
<circle style="fill:#77E584;" cx="256.005" cy="344.952" r="70.504"/>
<path style="fill:#54DD6B;" d="M205.501,344.947c0-35.54,26.302-64.923,60.5-69.782c-42.822-6.083-80.501,27.16-80.501,69.782  c0,42.684,37.74,75.857,80.501,69.782C231.803,409.871,205.501,380.488,205.501,344.947z"/>
<path d="M264.5,337.322v-14.778h11.114c4.143,0,7.5-3.358,7.5-7.5s-3.357-7.5-7.5-7.5H264.5v-6.556c0-4.142-3.357-7.5-7.5-7.5  c-4.143,0-7.5,3.358-7.5,7.5v6.556c-14.585,0-23.501,10.814-23.501,22.39c0,11.267,8.577,22.39,23.501,22.39v14.778h-11.112  c-4.143,0-7.5,3.358-7.5,7.5s3.357,7.5,7.5,7.5h11.112v6.556c0,4.142,3.357,7.5,7.5,7.5c4.143,0,7.5-3.358,7.5-7.5v-6.556  C295.591,382.102,295.767,337.322,264.5,337.322z M248.388,337.322c-9.25,0-10.773-14.778,1.111-14.778v14.778H248.388z   M265.614,367.101h-1.113v-14.778h1.113c4.073,0,7.387,3.314,7.387,7.389C273.002,363.788,269.687,367.101,265.614,367.101z"/>
<path d="M474.527,62.396H131.826c-4.143,0-7.5,3.358-7.5,7.5s3.357,7.5,7.5,7.5h342.701c12.392,0,22.472,10.082,22.472,22.473  v102.71c0,12.392-10.081,22.473-22.472,22.473h-51.851c0-6.968,0-13.235,0-20.14h46.683c4.143,0,7.5-3.358,7.5-7.5v-43.967v-48.409  c0-4.142-3.357-7.5-7.5-7.5H42.644c-4.143,0-7.5,3.358-7.5,7.5c0,14.651,0,81.503,0,92.376c0,4.142,3.357,7.5,7.5,7.5h46.681  c0,7.008,0,13.235,0,20.14H37.475c-12.393-0.001-22.474-10.082-22.474-22.474V99.869c0-12.392,10.082-22.473,22.474-22.473h59.35  c4.143,0,7.5-3.358,7.5-7.5s-3.357-7.5-7.5-7.5h-59.35C16.812,62.396,0,79.206,0,99.869v102.71  c0,20.663,16.812,37.474,37.475,37.474h51.849c0,4.705,0,160.888,0,165.394v16.814c0,15.078,12.268,27.346,27.346,27.346h278.662  c15.078,0,27.346-12.268,27.346-27.346c0-15.001,0-29.985,0-45.048c0-4.142-3.357-7.5-7.5-7.5s-7.5,3.358-7.5,7.5v20.733h-94.514  c12.921-13.925,20.841-32.551,20.841-52.999c0-20.449-7.921-39.075-20.842-53h94.515v50.264c0,4.142,3.357,7.5,7.5,7.5  s7.5-3.358,7.5-7.5c0-11.276,0-92.075,0-102.157h51.851c20.662,0,37.473-16.811,37.473-37.474V99.869  C512,79.206,495.189,62.396,474.527,62.396z M407.675,243.236c-8.389-4.264-7.141-2.948-84.23-2.948  c-2.919-5.036-6.334-9.67-10.178-13.841h94.408C407.675,232.41,407.675,237.236,407.675,243.236z M257,227.987  c-4.143,0-7.5,3.358-7.5,7.5v4.801h-42.864c25.292-32.024,73.914-31.423,98.731,0h-40.865v-4.801  C264.5,231.345,261.143,227.987,257,227.987z M104.324,243.236c0-6,0-10.829,0-16.789h94.41c-3.843,4.171-7.257,8.805-10.177,13.841  C113.373,240.288,112.319,239.171,104.324,243.236z M104.324,291.948h94.516c-27.81,29.971-27.78,76.061,0,105.999h-94.516V291.948z   M294.321,211.447c-23.593-13.292-52.927-13.36-76.641,0H104.324v-9.314c0-6.806,5.537-12.344,12.345-12.344  c28.489,0,270.73,0,278.662,0c6.807,0,12.345,5.537,12.345,12.344v9.314H294.321z M407.675,177.736  c-8.282-4.21-7.317-2.948-84.228-2.948c-2.903-4.994-6.328-9.636-10.225-13.842h94.453V177.736z M305.348,174.788H264.5v-4.802  c0-4.142-3.357-7.5-7.5-7.5c-4.143,0-7.5,3.358-7.5,7.5v4.802h-42.847c4.285-5.4,9.44-10.077,15.287-13.842h68.121  C295.908,164.711,301.062,169.388,305.348,174.788z M188.554,174.788c-76.146,0-76.266-1.101-84.229,2.948v-16.79h94.453  C194.881,165.153,191.456,169.793,188.554,174.788z M422.676,189.911v-28.966h39.182v28.966H422.676z M50.144,112.537h411.714  v33.408c-4.883,0-167.845,0-169.658,0c-13.672,0-232.934,0-242.056,0C50.144,145.945,50.144,112.537,50.144,112.537z   M50.144,189.911v-28.966h39.18v28.966H50.144z M407.675,422.261c0,6.806-5.537,12.345-12.345,12.345H116.669  c-6.807,0-12.345-5.538-12.345-12.345v-9.314H217.78c23.794,13.394,52.926,13.235,76.439,0h113.456V422.261z M234.117,404.022  C210.135,395.11,193,371.995,193,344.948c0-32.38,24.671-59.512,56.747-62.689c36.807-3.648,69.254,25.227,69.254,62.689  C319.001,388.48,275.439,419.313,234.117,404.022z M294.219,276.947c-23.767-13.378-52.876-13.262-76.439,0H104.324v-9.314  c0-6.806,5.537-12.344,12.345-12.344c28.655,0,271.042,0,278.662,0c6.807,0,12.345,5.537,12.345,12.344v9.314H294.219z"/>
<g>
</g>
<g>
</g>
<g>
</g>
<g>
</g>
<g>
</g>
<g>
</g>
<g>
</g>
<g>
</g>
<g>
</g>
<g>
</g>
<g>
</g>
<g>
</g>
<g>
</g>
<g>
</g>
<g>
</g>
</svg>
