<?xml version="1.0" encoding="iso-8859-1"?>
<!-- Generator: Adobe Illustrator 19.0.0, SVG Export Plug-In . SVG Version: 6.00 Build 0)  -->
<svg xmlns="http://www.w3.org/2000/svg" xmlns:xlink="http://www.w3.org/1999/xlink" version="1.1" id="Layer_1" x="0px" y="0px" viewBox="0 0 511.999 511.999" style="enable-background:new 0 0 511.999 511.999;" xml:space="preserve">
<path style="fill:#FF8C01;" d="M321.056,473.076V22.774c0-8.232-6.673-14.907-14.907-14.907H62.677  c-8.234,0-14.907,6.675-14.907,14.907v450.302L321.056,473.076L321.056,473.076z"/>
<path style="fill:#E8650C;" d="M87.746,7.867H62.677c-8.234,0-14.907,6.675-14.907,14.907v450.302H72.84V22.774  C72.84,14.542,79.512,7.867,87.746,7.867z"/>
<path style="fill:#61626D;" d="M345.829,504.132H23.995c-8.574,0-15.527-6.951-15.527-15.527s6.953-15.529,15.527-15.529h321.834  c8.576,0,15.527,6.953,15.527,15.529S354.405,504.132,345.829,504.132z"/>
<path style="fill:#393A47;" d="M345.829,488.604H23.995c-5.743,0-10.747-3.127-13.432-7.763  c-5.991,10.341,1.502,23.291,13.432,23.291h321.834c11.93,0,19.423-12.949,13.432-23.291  C356.576,485.477,351.573,488.604,345.829,488.604z"/>
<path style="fill:#C8E5FC;" d="M264.536,47.618H104.289c-8.232,0-14.907,6.675-14.907,14.907v114.817h190.06V62.524  C279.443,54.291,272.769,47.618,264.536,47.618z"/>
<path style="fill:#E0F1FC;" d="M264.536,47.618h-71.497c-13.448,41.941-16.803,86.49-10.131,129.724h96.535V62.524  C279.443,54.291,272.769,47.618,264.536,47.618z"/>
<path style="fill:#FFDAA4;" d="M193.938,262.071c0,8.232-6.675,14.907-14.907,14.907h-74.742c-8.232,0-14.907-6.675-14.907-14.907  v-15.32c0-8.232,6.675-14.907,14.907-14.907h74.742c8.232,0,14.907,6.675,14.907,14.907V262.071z"/>
<path style="fill:#FFC35A;" d="M179.031,254.411h-74.742c-6.98,0-12.824-4.804-14.444-11.284c-0.599,2.399-0.462,2.084-0.462,18.944  c0,8.232,6.675,14.907,14.907,14.907h74.742c8.232,0,14.907-6.675,14.907-14.907v-15.32c0-1.252-0.172-2.462-0.462-3.624  C191.855,249.606,186.011,254.411,179.031,254.411z"/>
<path style="fill:#8FC8F2;" d="M129.253,47.618h-24.965c-8.232,0-14.907,6.675-14.907,14.907v114.817h24.965V62.524  C114.348,54.291,121.021,47.618,129.253,47.618z"/>
<path style="fill:#A4A5A4;" d="M335.133,239.334h-14.078v45.133h14.078c8.232,0,14.907-6.674,14.907-14.907v-15.32  C350.04,246.008,343.366,239.334,335.133,239.334z"/>
<path style="fill:#FCA84C;" d="M504.491,149.274c0,8.233-6.675,14.907-14.907,14.907h-31.469c-8.232,0-14.907-6.674-14.907-14.907  V84.056c0-8.232,6.674-14.907,14.907-14.907h31.469c8.232,0,14.907,6.675,14.907,14.907V149.274z"/>
<path style="fill:#FF8C01;" d="M473.849,149.274V84.056c0-8.232,6.675-14.907,14.907-14.907h-30.642  c-8.232,0-14.907,6.675-14.907,14.907v65.217c0,8.233,6.674,14.907,14.907,14.907h30.642  C480.524,164.179,473.849,157.507,473.849,149.274z"/>
<path style="fill:#577DDD;" d="M203.436,109.316l-14.819-23.152c-1.961-3.066-6.451-3.064-8.41,0l-14.817,23.153  c-4.519,7.061-5.019,16.464,0.015,24.339c8.736,13.659,29.063,14.002,38.015,0l0.328-0.511c0.03-0.048,0.061-0.097,0.09-0.146  C208.21,125.614,208.057,116.54,203.436,109.316z"/>
<path style="fill:#4369B5;" d="M179.961,114.731c5.371-29.365,4.76-28.621,6.947-30.191c-2.352-1.359-5.283-0.591-6.701,1.626  l-14.817,23.153c-12.862,20.099,10.246,43.863,31.013,31.296C185.16,137.634,177.801,126.538,179.961,114.731z"/>
<path style="fill:#61626D;" d="M89.383,175.213v18.744c0,8.232,6.675,14.907,14.907,14.907h160.247  c8.232,0,14.907-6.675,14.907-14.907v-18.744H89.383z"/>
<path style="fill:#333542;" d="M114.348,193.957v-18.744H89.383v18.744c0,8.232,6.675,14.907,14.907,14.907h24.965  C121.021,208.863,114.348,202.189,114.348,193.957z"/>
<path style="fill:#636570;" d="M189.658,208.863h74.879c8.232,0,14.907-6.675,14.907-14.907v-18.744H182.6  C184.278,186.668,186.647,197.898,189.658,208.863z"/>
<path d="M104.309,231.844c-12.349,0-22.396,10.048-22.396,22.396v15.32c0,12.348,10.047,22.396,22.396,22.396h74.742  c12.349,0,22.396-10.048,22.396-22.396v-15.32c0-12.348-10.047-22.396-22.396-22.396L104.309,231.844L104.309,231.844z   M186.467,254.241v15.32c0,4.09-3.327,7.417-7.417,7.417h-74.742c-4.09,0-7.417-3.327-7.417-7.417v-15.32  c0-4.09,3.327-7.417,7.417-7.417h74.742C183.14,246.823,186.467,250.15,186.467,254.241z"/>
<path d="M227.908,231.844c-4.137,0-7.489,3.352-7.489,7.489s3.352,7.489,7.489,7.489h51.554c4.137,0,7.489-3.352,7.489-7.489  s-3.352-7.489-7.489-7.489H227.908z"/>
<path d="M286.952,174.214V62.524c0-12.348-10.048-22.396-22.396-22.396H104.309c-12.348,0-22.396,10.048-22.396,22.396v111.69  v18.744c0,12.347,10.046,22.396,22.396,22.396c171.64,0,160.85,0.056,162.533-0.116c11.279-1.149,20.109-10.703,20.109-22.28  V174.214z M264.556,200.375H104.309c-4.09,0-7.417-3.327-7.417-7.417v-11.255h24.548c4.137,0,7.489-3.352,7.489-7.489  s-3.352-7.489-7.489-7.489H96.891v-104.2c0-4.09,3.327-7.417,7.417-7.417h160.247c4.09,0,7.417,3.327,7.417,7.417v104.201H147.405  c-4.137,0-7.489,3.352-7.489,7.489s3.352,7.489,7.489,7.489h124.568v11.255C271.973,197.048,268.646,200.375,264.556,200.375z"/>
<path d="M489.604,61.66h-8.246V32.711c0-2.258-1.02-4.395-2.772-5.817L447.945,2.051c-3.214-2.605-7.931-2.113-10.534,1.1  c-2.605,3.213-2.113,7.929,1.1,10.534l27.867,22.596v25.38h-8.244c-12.348,0-22.396,10.047-22.396,22.396v9.413l-23.798,17.117  c-1.957,1.407-3.117,3.671-3.117,6.08v47.515c0,4.137,3.352,7.489,7.489,7.489c10.382,0,39.449,0,50.066,0  c0,1.635,0,162.637,0,168.026c0,30.001-24.41,54.409-54.415,54.409s-54.415-24.407-54.415-54.409v-67.799  c0-0.293-0.021-0.58-0.054-0.865c0.074-1.136,0.054-0.106,0.054-16.792c0-12.348-10.048-22.396-22.396-22.396h-6.589V72.486  c0-4.137-3.352-7.489-7.489-7.489c-4.137,0-7.489,3.352-7.489,7.489v166.848c0,10.519,0,217.172,0,226.253H55.279V22.774  c0-4.09,3.327-7.417,7.417-7.417h243.472c4.09,0,7.417,3.327,7.417,7.417V48.52c0,4.137,3.352,7.489,7.489,7.489  c4.137,0,7.489-3.352,7.489-7.489V22.774c0-12.349-10.048-22.396-22.396-22.396H62.696C50.348,0.378,40.3,10.425,40.3,22.774  v442.812H23.016C10.325,465.586,0,475.913,0,488.605c0,12.691,10.325,23.016,23.016,23.016h24.528c4.137,0,7.489-3.352,7.489-7.489  c0-4.137-3.352-7.489-7.489-7.489H23.016c-4.432,0-8.038-3.605-8.038-8.038c0-4.433,3.605-8.04,8.038-8.04H47.79h273.286h25.772  c4.432,0,8.038,3.606,8.038,8.04c0,4.432-3.605,8.038-8.038,8.038H73.51c-4.137,0-7.489,3.352-7.489,7.489  c0,4.137,3.352,7.489,7.489,7.489h273.338c12.691,0,23.016-10.325,23.016-23.016c0-12.692-10.325-23.018-23.016-23.018h-18.283  v-173.63c6.908,0,9.638,0.27,14.005-1.268v49.006c0,38.26,31.13,69.387,69.393,69.387s69.393-31.128,69.393-69.387  c0-5.389,0-166.392,0-168.026h8.246c12.348,0,22.396-10.048,22.396-22.396V84.054C512,71.707,501.952,61.66,489.604,61.66z   M335.153,276.977h-6.589v-30.154h6.589c4.09,0,7.417,3.327,7.417,7.417v15.32C342.571,273.65,339.243,276.977,335.153,276.977z   M423.802,120.503l11.936-8.585c0,40.359-0.422,39.969,1.268,44.771h-13.204V120.503z M458.134,156.69  c-4.09,0-7.417-3.327-7.417-7.417V84.055c0-4.09,3.327-7.417,7.417-7.417h31.469c4.09,0,7.417,3.327,7.417,7.417v65.217  c0,4.09-3.327,7.417-7.417,7.417H458.134z"/>
<path d="M169.028,147.3c0,0,6.444,4.234,15.393,4.248c23.627,0,38.19-26.186,25.343-46.268L190.74,75.556  c-1.377-2.151-3.755-3.452-6.308-3.452c-2.553,0-4.931,1.302-6.308,3.452l-19.022,29.724  C149.761,119.875,154.704,138.747,169.028,147.3z M171.718,113.355l12.713-19.868l12.715,19.867  c8.909,13.925-8.25,30.439-21.946,20.064C169.267,128.842,167.325,120.217,171.718,113.355z"/>
<g>
</g>
<g>
</g>
<g>
</g>
<g>
</g>
<g>
</g>
<g>
</g>
<g>
</g>
<g>
</g>
<g>
</g>
<g>
</g>
<g>
</g>
<g>
</g>
<g>
</g>
<g>
</g>
<g>
</g>
</svg>
