<?xml version="1.0" encoding="iso-8859-1"?>
<!-- Generator: Adobe Illustrator 19.0.0, SVG Export Plug-In . SVG Version: 6.00 Build 0)  -->
<svg version="1.1" id="Layer_1" xmlns="http://www.w3.org/2000/svg" xmlns:xlink="http://www.w3.org/1999/xlink" x="0px" y="0px"
	 viewBox="0 0 512 512" style="enable-background:new 0 0 512 512;" xml:space="preserve">
<g>
	<path style="fill:#EDEDED;" d="M256,58.602C256,54.161,256,58.602,256,58.602"/>
	<path style="fill:#EDEDED;" d="M342.361,132.627c0-37.012,12.337-49.349,12.337-74.024c0-27.254-22.095-49.349-49.349-49.349
		C278.095,9.253,256,31.347,256,58.602l0,0c0,24.675,12.337,37.012,12.337,74.024c0,80.193-49.349,104.867-49.349,185.06
		c0,98.699,49.349,185.06,49.349,185.06h74.024c0,0,49.349-86.361,49.349-185.06C391.711,237.494,342.361,212.819,342.361,132.627z"
		/>
</g>
<path style="fill:#D8D8DA;" d="M342.361,132.627c0-37.012,12.337-49.349,12.337-74.024c0-27.254-22.095-49.349-49.349-49.349
	c-6.546,0-12.79,1.286-18.506,3.601c18.083,7.322,30.843,25.04,30.843,45.748c0,24.675-12.337,37.012-12.337,74.024
	c0,80.193,49.349,104.867,49.349,185.06c0,98.699-49.349,185.06-49.349,185.06h37.012c0,0,49.349-86.361,49.349-185.06
	C391.711,237.494,342.361,212.819,342.361,132.627z"/>
<path style="fill:#E07188;" d="M267.841,120.289c0.313,3.801,0.496,7.887,0.496,12.337c0,19.101-2.803,35.048-7.069,49.349h88.161
	c-4.266-14.301-7.069-30.249-7.069-49.349c0-4.45,0.181-8.536,0.496-12.337H267.841z"/>
<path style="fill:#DC4161;" d="M342.361,132.627c0-4.45,0.181-8.536,0.496-12.337h-37.012c-0.313,3.801-0.496,7.887-0.496,12.337
	c0,19.101,2.803,35.048,7.069,49.349h37.012C345.164,167.674,342.361,151.727,342.361,132.627z"/>
<circle style="fill:#88888F;" cx="299.181" cy="336.193" r="166.554"/>
<path style="fill:#797781;" d="M299.181,169.639c-8.384,0-16.622,0.627-24.675,1.822c80.283,11.924,141.88,81.132,141.88,164.732
	s-61.597,152.808-141.88,164.732c8.053,1.195,16.29,1.822,24.675,1.822c91.985,0,166.554-74.568,166.554-166.554
	S391.166,169.639,299.181,169.639z"/>
<g>
	<circle style="fill:#58575D;" cx="323.855" cy="262.169" r="18.506"/>
	<circle style="fill:#58575D;" cx="323.855" cy="336.193" r="18.506"/>
	<circle style="fill:#58575D;" cx="385.542" cy="299.181" r="18.506"/>
</g>
<path style="fill:#EDEDED;" d="M169.639,132.627c0-37.012,12.337-49.349,12.337-74.024c0-27.254-22.095-49.349-49.349-49.349
	S83.277,31.347,83.277,58.602l0,0c0,24.675,12.337,37.012,12.337,74.024c0,80.193-49.349,104.867-49.349,185.06
	c0,98.699,49.349,185.06,49.349,185.06h74.024c0,0,49.349-86.361,49.349-185.06C218.988,237.494,169.639,212.819,169.639,132.627z"
	/>
<path style="fill:#D8D8DA;" d="M169.639,132.627c0-37.012,12.337-49.349,12.337-74.024c0-27.254-22.095-49.349-49.349-49.349
	c-6.546,0-12.79,1.286-18.506,3.601c18.083,7.322,30.843,25.04,30.843,45.748c0,24.675-12.337,37.012-12.337,74.024
	c0,80.193,49.349,104.867,49.349,185.06c0,98.699-49.349,185.06-49.349,185.06h37.012c0,0,49.349-86.361,49.349-185.06
	C218.988,237.494,169.639,212.819,169.639,132.627z"/>
<path style="fill:#E07188;" d="M95.118,120.289c0.313,3.801,0.496,7.887,0.496,12.337c0,19.101-2.803,35.048-7.069,49.349h88.161
	c-4.266-14.301-7.069-30.249-7.069-49.349c0-4.45,0.181-8.536,0.496-12.337H95.118z"/>
<path style="fill:#DC4161;" d="M169.639,132.627c0-4.45,0.181-8.536,0.496-12.337h-37.012c-0.313,3.801-0.496,7.887-0.496,12.337
	c0,19.101,2.803,35.048,7.069,49.349h37.012C172.442,167.674,169.639,151.727,169.639,132.627z"/>
<g>
	<path style="fill:#2E2D31;" d="M474.988,336.193c0-96.941-78.867-175.807-175.807-175.807c-8.018,0-15.998,0.563-23.886,1.65
		c1.527-9.52,2.296-19.233,2.296-29.409c0-1.052-0.017-2.069-0.036-3.084h55.588c-0.019,1.015-0.036,2.032-0.036,3.084
		c0,5.111,4.143,9.253,9.253,9.253c5.11,0,9.253-4.142,9.253-9.253c0-19.061,3.424-30.871,6.734-42.291
		c2.883-9.94,5.605-19.328,5.605-31.733C363.952,26.29,337.662,0,305.349,0s-58.602,26.29-58.602,58.602
		c0,12.405,2.722,21.793,5.602,31.733c3.311,11.421,6.735,23.23,6.735,42.291c0,11.607-1.076,22.522-3.279,33.223
		c-23.124,5.896-44.973,16.452-63.991,31.125c-7.425-18.305-12.922-38.124-12.922-64.348c0-19.061,3.424-30.871,6.734-42.291
		c2.882-9.94,5.604-19.328,5.604-31.733C191.229,26.29,164.939,0,132.627,0S74.024,26.29,74.024,58.602
		c0,12.405,2.722,21.793,5.602,31.733c3.311,11.421,6.735,23.23,6.735,42.291c0,38.027-11.558,62.587-23.794,88.591
		c-12.564,26.697-25.556,54.304-25.556,96.469c0,100.007,48.503,186.037,50.568,189.651c1.647,2.883,4.713,4.662,8.034,4.662h74.024
		c3.32,0,6.387-1.779,8.034-4.662c2.064-3.614,50.568-89.644,50.568-189.651c0-42.165-12.991-69.773-25.556-96.469
		c-1.067-2.266-2.128-4.523-3.177-6.778c0.215-0.147,0.428-0.296,0.634-0.464c27.884-22.623,63.055-35.084,99.038-35.084
		c86.737,0,157.301,70.565,157.301,157.301s-70.565,157.301-157.301,157.301c-22.317,0-43.878-4.576-64.083-13.598
		c-4.667-2.087-10.138,0.01-12.223,4.675c-2.084,4.666,0.01,10.139,4.675,12.221c10.694,4.776,21.727,8.424,33.025,10.956
		c1.698,2.629,4.609,4.253,7.761,4.253h74.024c3.32,0,6.386-1.779,8.034-4.661c0.041-0.072,0.746-1.314,1.942-3.559
		C423.375,481.195,474.988,414.613,474.988,336.193z M132.627,18.506c22.109,0,40.096,17.987,40.096,40.096
		c0,9.777-2.258,17.563-4.871,26.58c-2.171,7.488-4.519,15.601-5.991,25.854h-58.468c-1.472-10.254-3.821-18.367-5.991-25.854
		c-2.614-9.016-4.872-16.802-4.872-26.58C92.53,36.493,110.518,18.506,132.627,18.506z M104.832,129.542h55.588
		c-0.019,1.015-0.036,2.032-0.036,3.084c0,15.007,1.651,28.162,4.338,40.096H100.53c2.687-11.934,4.338-25.089,4.338-40.096
		C104.867,131.574,104.85,130.558,104.832,129.542z M209.735,317.687c0,82.253-35.755,156.789-45.632,175.807H101.15
		c-9.88-19.02-45.632-93.554-45.632-175.807c0-38.027,11.558-62.587,23.794-88.591c5.657-12.022,11.397-24.232,16.003-37.867h74.624
		c4.606,13.636,10.345,25.847,16.003,37.867C198.177,255.099,209.735,279.659,209.735,317.687z M305.349,18.506
		c22.109,0,40.096,17.987,40.096,40.096c0,9.777-2.258,17.563-4.871,26.58c-2.171,7.488-4.519,15.601-5.991,25.854h-58.468
		c-1.472-10.254-3.821-18.367-5.991-25.854c-2.614-9.016-4.872-16.802-4.872-26.58C265.253,36.493,283.241,18.506,305.349,18.506z"
		/>
	<path style="fill:#2E2D31;" d="M323.855,289.928c15.307,0,27.759-12.453,27.759-27.759s-12.452-27.759-27.759-27.759
		s-27.759,12.453-27.759,27.759S308.548,289.928,323.855,289.928z M323.855,252.916c5.103,0,9.253,4.15,9.253,9.253
		c0,5.103-4.15,9.253-9.253,9.253c-5.103,0-9.253-4.15-9.253-9.253C314.602,257.066,318.753,252.916,323.855,252.916z"/>
	<path style="fill:#2E2D31;" d="M323.855,363.952c15.307,0,27.759-12.453,27.759-27.759s-12.452-27.759-27.759-27.759
		s-27.759,12.453-27.759,27.759S308.548,363.952,323.855,363.952z M323.855,326.94c5.103,0,9.253,4.15,9.253,9.253
		s-4.15,9.253-9.253,9.253c-5.103,0-9.253-4.15-9.253-9.253S318.753,326.94,323.855,326.94z"/>
	<path style="fill:#2E2D31;" d="M413.301,299.181c0-15.306-12.452-27.759-27.759-27.759s-27.759,12.453-27.759,27.759
		s12.452,27.759,27.759,27.759S413.301,314.486,413.301,299.181z M376.289,299.181c0-5.103,4.15-9.253,9.253-9.253
		s9.253,4.15,9.253,9.253s-4.15,9.253-9.253,9.253S376.289,304.283,376.289,299.181z"/>
</g>
<g>
</g>
<g>
</g>
<g>
</g>
<g>
</g>
<g>
</g>
<g>
</g>
<g>
</g>
<g>
</g>
<g>
</g>
<g>
</g>
<g>
</g>
<g>
</g>
<g>
</g>
<g>
</g>
<g>
</g>
</svg>
