<svg xmlns="http://www.w3.org/2000/svg" viewBox="0 0 512 512"><defs><style>.cls-1{fill:#27273d;}.cls-2{fill:#a65c3b;}.cls-3{fill:#9e4830;}.cls-4{fill:#f55b4b;}.cls-5{fill:#fff;}.cls-6{fill:#db1b1b;}.cls-7{fill:#f7bb38;}.cls-8{fill:#db4f45;}.cls-9{fill:#7cc8fb;}.cls-10{fill:#a4dfff;}.cls-11{fill:#4f4f74;}.cls-12{fill:#6d6d93;}.cls-13{fill:#32314b;}.cls-14{fill:#a99bd4;}</style></defs><title>Cinema</title><g id="BULINE"><circle class="cls-1" cx="256" cy="256" r="256"/></g><g id="Icons"><path class="cls-2" d="M58.94,273.18V416.09H56.23q-5.59-7-10.71-14.34V273.18Z"/><rect class="cls-3" x="45.52" y="273.18" width="13.42" height="11.46"/><path class="cls-2" d="M464.64,273.18V404.36q-4.27,6-8.87,11.73h-4.54V273.18Z"/><rect class="cls-3" x="451.23" y="273.18" width="13.42" height="11.46"/><rect class="cls-4" x="67.73" y="247.01" width="375" height="169.08"/><rect class="cls-5" x="45.52" y="142.51" width="419.42" height="104.5" rx="10.94"/><path class="cls-6" d="M454,142.51H56.46a10.94,10.94,0,0,0-10.94,10.94v82.62A10.94,10.94,0,0,0,56.46,247H454a10.94,10.94,0,0,0,10.94-10.94V153.45A10.94,10.94,0,0,0,454,142.51Zm-18.4,76H71V170.8H435.6Z"/><circle class="cls-7" cx="58.94" cy="207.85" r="8.67"/><circle class="cls-7" cx="58.94" cy="182.18" r="8.67"/><circle class="cls-7" cx="448.27" cy="182.18" r="8.67"/><circle class="cls-7" cx="58.94" cy="231.18" r="8.67"/><circle class="cls-7" cx="83.27" cy="231.18" r="8.67"/><circle class="cls-7" cx="107.6" cy="231.18" r="8.67"/><circle class="cls-7" cx="131.94" cy="231.18" r="8.67"/><circle class="cls-7" cx="156.27" cy="231.18" r="8.67"/><circle class="cls-7" cx="180.6" cy="231.18" r="8.67"/><circle class="cls-7" cx="204.94" cy="231.18" r="8.67"/><circle class="cls-7" cx="229.27" cy="231.18" r="8.67"/><circle class="cls-7" cx="253.6" cy="231.18" r="8.67"/><circle class="cls-7" cx="277.94" cy="231.18" r="8.67"/><circle class="cls-7" cx="302.27" cy="231.18" r="8.67"/><circle class="cls-7" cx="326.6" cy="231.18" r="8.67"/><circle class="cls-7" cx="350.94" cy="231.18" r="8.67"/><circle class="cls-7" cx="375.27" cy="231.18" r="8.67"/><circle class="cls-7" cx="399.6" cy="231.18" r="8.67"/><circle class="cls-7" cx="423.94" cy="231.18" r="8.67"/><circle class="cls-7" cx="83.27" cy="158.51" r="8.67"/><circle class="cls-7" cx="107.6" cy="158.51" r="8.67"/><circle class="cls-7" cx="131.94" cy="158.51" r="8.67"/><circle class="cls-7" cx="156.27" cy="158.51" r="8.67"/><circle class="cls-7" cx="180.6" cy="158.51" r="8.67"/><circle class="cls-7" cx="204.94" cy="158.51" r="8.67"/><circle class="cls-7" cx="229.27" cy="158.51" r="8.67"/><circle class="cls-7" cx="253.6" cy="158.51" r="8.67"/><circle class="cls-7" cx="277.94" cy="158.51" r="8.67"/><circle class="cls-7" cx="302.27" cy="158.51" r="8.67"/><circle class="cls-7" cx="326.6" cy="158.51" r="8.67"/><circle class="cls-7" cx="350.94" cy="158.51" r="8.67"/><circle class="cls-7" cx="375.27" cy="158.51" r="8.67"/><circle class="cls-7" cx="399.6" cy="158.51" r="8.67"/><circle class="cls-7" cx="423.94" cy="158.51" r="8.67"/><circle class="cls-7" cx="448.27" cy="231.18" r="8.67"/><circle class="cls-7" cx="58.94" cy="158.51" r="8.67"/><circle class="cls-7" cx="448.27" cy="207.85" r="8.67"/><circle class="cls-7" cx="448.27" cy="158.51" r="8.67"/><rect class="cls-5" x="26.25" y="255.18" width="457.96" height="18" rx="3.4"/><rect class="cls-8" x="67.6" y="273.18" width="375.13" height="14.46"/><path class="cls-5" d="M98.43,298.64h64.5a4,4,0,0,1,4,4V416.09a0,0,0,0,1,0,0H94.43a0,0,0,0,1,0,0V302.64A4,4,0,0,1,98.43,298.64Z"/><path class="cls-9" d="M158.8,312.58V370.7a3.93,3.93,0,0,1-3.93,3.94H106.49a3.92,3.92,0,0,1-3.93-3.94V312.58a3.93,3.93,0,0,1,3.93-3.94h48.38A3.93,3.93,0,0,1,158.8,312.58Z"/><polygon class="cls-10" points="142.97 308.64 102.56 349.05 102.56 339.15 133.07 308.64 142.97 308.64"/><path class="cls-10" d="M158.8,317.65v9.9l-47.09,47.09h-5.22a4,4,0,0,1-3.13-1.55Z"/><rect class="cls-2" x="102.56" y="380.14" width="56.24" height="9.5" rx="3.43"/><path class="cls-5" d="M180.18,298.64h64.5a4,4,0,0,1,4,4V416.09a0,0,0,0,1,0,0h-72.5a0,0,0,0,1,0,0V302.64A4,4,0,0,1,180.18,298.64Z"/><path class="cls-9" d="M240.55,312.58V370.7a3.93,3.93,0,0,1-3.93,3.94H188.24a3.92,3.92,0,0,1-3.93-3.94V312.58a3.93,3.93,0,0,1,3.93-3.94h48.38A3.93,3.93,0,0,1,240.55,312.58Z"/><polygon class="cls-10" points="224.72 308.64 184.31 349.05 184.31 339.15 214.82 308.64 224.72 308.64"/><path class="cls-10" d="M240.55,317.65v9.9l-47.09,47.09h-5.22a4,4,0,0,1-3.13-1.55Z"/><rect class="cls-2" x="184.31" y="380.14" width="56.24" height="9.5" rx="3.43"/><path class="cls-5" d="M261.94,298.64h64.5a4,4,0,0,1,4,4V416.09a0,0,0,0,1,0,0h-72.5a0,0,0,0,1,0,0V302.64A4,4,0,0,1,261.94,298.64Z"/><path class="cls-9" d="M322.31,312.58V370.7a3.93,3.93,0,0,1-3.93,3.94H270a3.92,3.92,0,0,1-3.93-3.94V312.58a3.93,3.93,0,0,1,3.93-3.94h48.38A3.93,3.93,0,0,1,322.31,312.58Z"/><polygon class="cls-10" points="306.48 308.64 266.07 349.05 266.07 339.15 296.58 308.64 306.48 308.64"/><path class="cls-10" d="M322.31,317.65v9.9l-47.09,47.09H270a4,4,0,0,1-3.13-1.55Z"/><rect class="cls-2" x="266.07" y="380.14" width="56.24" height="9.5" rx="3.43"/><path class="cls-5" d="M343.69,298.64h64.5a4,4,0,0,1,4,4V416.09a0,0,0,0,1,0,0h-72.5a0,0,0,0,1,0,0V302.64A4,4,0,0,1,343.69,298.64Z"/><path class="cls-9" d="M404.06,312.58V370.7a3.93,3.93,0,0,1-3.93,3.94H351.75a3.92,3.92,0,0,1-3.93-3.94V312.58a3.93,3.93,0,0,1,3.93-3.94h48.38A3.93,3.93,0,0,1,404.06,312.58Z"/><polygon class="cls-10" points="388.23 308.64 347.82 349.05 347.82 339.15 378.33 308.64 388.23 308.64"/><path class="cls-10" d="M404.06,317.65v9.9L357,374.64h-5.22a4,4,0,0,1-3.13-1.55Z"/><rect class="cls-2" x="347.82" y="380.14" width="56.24" height="9.5" rx="3.43"/><path class="cls-11" d="M75.54,86.64H434.07a8.23,8.23,0,0,1,8.23,8.23v47.64a0,0,0,0,1,0,0h-375a0,0,0,0,1,0,0V94.87A8.23,8.23,0,0,1,75.54,86.64Z"/><rect class="cls-12" x="55.81" y="98.52" width="398" height="8.67" rx="4.33"/><rect class="cls-12" x="55.81" y="119.85" width="398" height="8.67" rx="4.33"/><path class="cls-13" d="M125.76,180.07h5.17v10.77h-5.17q-2.19-5.81-7.62-5.8a8,8,0,0,0-6.78,3.05,11.86,11.86,0,0,0-2.3,7.32,10.53,10.53,0,0,0,2.43,7.22,7.87,7.87,0,0,0,6.19,2.75,7.77,7.77,0,0,0,5.38-2.08,10.62,10.62,0,0,0,3.12-5.8l6,2.86Q128.76,211,117.1,211q-8.23,0-12.42-4.44a15.72,15.72,0,0,1-4.19-11.23,16.15,16.15,0,0,1,2.18-8.46,14.1,14.1,0,0,1,5.85-5.46,17.92,17.92,0,0,1,8.08-1.83,14.48,14.48,0,0,1,9.16,2.86Z"/><path class="cls-13" d="M156.9,210.64v-5.17h4.63V185.24H156.9v-5.17h17.27v5.17h-4.68v20.23h4.68v5.17Z"/><path class="cls-13" d="M198.82,210.64v-5.17h4.09V185.24h-4.09v-5.17h12.84l11.24,19.06V185.24h-4v-5.17h13.71v5.17h-4.29v25.62h-6.81L208.36,188.2v17.27h3.84v5.17Z"/><path class="cls-13" d="M257.25,210.64v-5.17h3.67V185.24h-3.67v-5.17h26.93v9.69h-5.84v-4.52h-9.47v7h7.65v5.16h-7.65v8h9.47V200.9h5.84v9.74Z"/><path class="cls-13" d="M309.5,210.64v-5.17h3.95V185.24H309.5v-5.17h15.33l6.7,17.91,6.75-17.91H353.9v5.17H350v20.23h3.95v5.17H338.52v-5.17h3.69V185.24h-.72L332,210.64h-3.3l-9.58-25.4h-.72v20.23h4v5.17Z"/><path class="cls-13" d="M409.12,205.47v5.17h-15v-5.17H398l-1.45-5.25h-7.93L387,205.47h4.09v5.17H377.55v-5.17h3.78l5.95-20.23h-4.07v-5.17h20v5.17h-4.11l6.41,20.23Zm-13.82-9.73-2.55-9.21L390,195.74Z"/><path class="cls-14" d="M455.77,416.09a256,256,0,0,1-399.54,0Z"/></g></svg>