<?xml version="1.0" encoding="utf-8"?>
<!-- Generator: Adobe Illustrator 16.0.0, SVG Export Plug-In . SVG Version: 6.00 Build 0)  -->
<!DOCTYPE svg PUBLIC "-//W3C//DTD SVG 1.1//EN" "http://www.w3.org/Graphics/SVG/1.1/DTD/svg11.dtd">
<svg version="1.1" id="Layer_1" xmlns="http://www.w3.org/2000/svg" xmlns:xlink="http://www.w3.org/1999/xlink" x="0px" y="0px"
	 width="512px" height="512px" viewBox="0 0 512 512" enable-background="new 0 0 512 512" xml:space="preserve">
<g id="_x35__discount_x2C__sale_x2C__purchase_x2C__pocket_x2C__shop_x2C__shopping_x2C__commerce_1_">
	<g>
		<polygon fill="#967ADC" points="206.153,223.95 28.034,223.95 20.035,239.94 204.982,239.94 		"/>
	</g>
	<g>
		<polygon fill="#AC92EC" points="189.765,447.906 4.038,447.906 20.035,239.94 204.982,239.94 		"/>
	</g>
	<g opacity="0.2">
		<polygon points="190.156,223.95 173.768,447.906 189.765,447.906 206.153,223.95 		"/>
	</g>
	<g opacity="0.4">
		<polygon fill="#FFFFFF" points="20.035,239.94 4.038,447.906 20.035,447.906 36.032,239.94 		"/>
	</g>
	<g>
		<polygon fill="#48CFAD" points="507.961,471.902 188.008,471.902 212.004,143.956 483.965,143.956 		"/>
	</g>
	<g opacity="0.4">
		<polygon fill="#FFFFFF" points="212.004,143.956 188.008,471.902 204.005,471.902 228.001,143.956 		"/>
	</g>
	<g opacity="0.2">
		<polygon points="483.965,143.956 507.961,471.902 491.963,471.902 467.967,143.956 		"/>
	</g>
	<g>
		<polygon fill="#37BC9B" points="483.965,143.956 212.004,143.956 220.002,127.958 475.966,127.958 		"/>
	</g>
	<g>
		<path fill="#E6E9ED" d="M331.989,275.997c0,15.466-12.537,27.995-27.996,27.995c-15.458,0-27.995-12.529-27.995-27.995
			c0-15.463,12.537-27.996,27.995-27.996C319.452,248.001,331.989,260.534,331.989,275.997z"/>
	</g>
	<g>
		<path fill="#FFFFFF" d="M283.997,275.997c0-14.092,10.451-25.637,23.996-27.594c-1.32-0.188-2.633-0.402-4-0.402
			c-15.458,0-27.995,12.533-27.995,27.996c0,15.466,12.537,27.995,27.995,27.995c1.367,0,2.68-0.219,4-0.406
			C294.448,301.633,283.997,290.088,283.997,275.997z"/>
	</g>
	<g>
		<path fill="#E6E9ED" d="M419.975,363.982c0,15.467-12.537,27.996-27.995,27.996c-15.459,0-27.996-12.529-27.996-27.996
			c0-15.466,12.537-27.995,27.996-27.995C407.438,335.987,419.975,348.517,419.975,363.982z"/>
	</g>
	<g>
		<path fill="#FFFFFF" d="M371.982,363.982c0-14.092,10.452-25.637,23.996-27.589c-1.319-0.188-2.632-0.406-3.999-0.406
			c-15.459,0-27.996,12.529-27.996,27.995c0,15.467,12.537,27.996,27.996,27.996c1.367,0,2.68-0.219,3.999-0.406
			C382.435,389.619,371.982,378.074,371.982,363.982z"/>
	</g>
	<g opacity="0.2">
		<path d="M411.976,363.982c0,14.092-10.451,25.637-23.996,27.59c1.32,0.188,2.633,0.406,4,0.406
			c15.458,0,27.995-12.529,27.995-27.996c0-15.466-12.537-27.995-27.995-27.995c-1.367,0-2.68,0.219-4,0.406
			C401.524,338.346,411.976,349.891,411.976,363.982z"/>
	</g>
	<g opacity="0.2">
		<path d="M323.99,275.997c0,14.091-10.451,25.636-23.996,27.589c1.32,0.188,2.632,0.406,3.999,0.406
			c15.459,0,27.996-12.529,27.996-27.995c0-15.463-12.537-27.996-27.996-27.996c-1.367,0-2.679,0.215-3.999,0.402
			C313.539,250.36,323.99,261.905,323.99,275.997z"/>
	</g>
	<g opacity="0.2">
		<polygon points="189.57,231.945 24.034,231.945 20.035,239.94 188.984,239.94 		"/>
	</g>
	<g id="_x35__discount_x2C__sale_x2C__purchase_x2C__pocket_x2C__shop_x2C__shopping_x2C__commerce">
		<g>
			<path fill="#3A3847" d="M507.953,475.902c-2.07,0-3.828-1.609-3.984-3.703l-23.996-327.951c-0.156-2.203,1.5-4.121,3.703-4.281
				c1.976-0.152,4.116,1.492,4.28,3.695l23.996,327.943c0.155,2.203-1.5,4.125-3.702,4.281
				C508.156,475.902,508.055,475.902,507.953,475.902z"/>
		</g>
		<g>
			<path fill="#3A3847" d="M507.961,475.902H188.008c-2.21,0-4-1.789-4-4c0-2.21,1.789-3.999,4-3.999h319.953
				c2.21,0,3.999,1.789,3.999,3.999C511.96,474.113,510.171,475.902,507.961,475.902z"/>
		</g>
		<g>
			<path fill="#3A3847" d="M188.016,475.902c-0.102,0-0.203,0-0.297-0.016c-2.203-0.156-3.859-2.078-3.703-4.281l23.996-327.943
				c0.164-2.203,2.266-3.859,4.281-3.695c2.203,0.16,3.859,2.078,3.703,4.281L192,472.199
				C191.843,474.293,190.085,475.902,188.016,475.902z"/>
		</g>
		<g>
			<path fill="#3A3847" d="M260.005,147.955h-48.001c-2.21,0-4-1.789-4-4s1.789-4,4-4h48.001c2.21,0,3.995,1.789,3.995,4
				S262.215,147.955,260.005,147.955z"/>
		</g>
		<g>
			<path fill="#3A3847" d="M483.965,147.955h-47.993c-2.21,0-3.999-1.789-3.999-4s1.789-4,3.999-4h47.993
				c2.21,0,3.999,1.789,3.999,4S486.175,147.955,483.965,147.955z"/>
		</g>
		<g>
			<path fill="#3A3847" d="M395.979,147.955h-95.984c-2.211,0-3.999-1.789-3.999-4s1.788-4,3.999-4h95.984
				c2.211,0,3.999,1.789,3.999,4S398.189,147.955,395.979,147.955z"/>
		</g>
		<g>
			<path fill="#3A3847" d="M483.965,459.904H212.004c-2.21,0-4-1.788-4-3.999c0-2.21,1.789-3.999,4-3.999h271.961
				c2.21,0,3.999,1.789,3.999,3.999C487.964,458.116,486.175,459.904,483.965,459.904z"/>
		</g>
		<g>
			<path fill="#3A3847" d="M276.006,187.948c-0.117,0-0.227-0.004-0.344-0.016c-2.194-0.184-3.835-2.117-3.647-4.315
				c0.5-6.022,13.029-147.52,75.972-147.52c62.943,0,75.473,141.497,75.972,147.52c0.188,2.199-1.452,4.132-3.647,4.315
				c-2.233,0.199-4.14-1.445-4.319-3.651c-0.117-1.402-12.365-140.185-68.005-140.185c-55.663,0-67.888,138.782-68.005,140.185
				C279.81,186.371,278.061,187.948,276.006,187.948z"/>
		</g>
		<g>
			<g>
				<path fill="#3A3847" d="M172.01,451.906H4.038c-2.211,0-4-1.789-4-4c0-2.21,1.789-3.999,4-3.999H172.01c2.211,0,4,1.789,4,3.999
					C176.01,450.117,174.221,451.906,172.01,451.906z"/>
			</g>
			<g>
				<path fill="#3A3847" d="M4.045,451.906c-0.109,0-0.211,0-0.312-0.016c-2.203-0.164-3.851-2.094-3.679-4.297l15.998-207.962
					c0.164-2.207,2.273-3.793,4.288-3.68c2.203,0.168,3.851,2.094,3.679,4.296L8.021,448.219
					C7.865,450.312,6.107,451.906,4.045,451.906z"/>
			</g>
			<g>
				<path fill="#3A3847" d="M188.008,243.939H20.035c-2.21,0-3.999-1.789-3.999-3.999c0-2.211,1.789-4,3.999-4h167.973
					c2.21,0,4,1.789,4,4C192.007,242.15,190.218,243.939,188.008,243.939z"/>
			</g>
			<g>
				<path fill="#3A3847" d="M172.01,435.908H28.034c-2.211,0-4-1.788-4-3.999s1.789-3.999,4-3.999H172.01c2.211,0,4,1.788,4,3.999
					S174.221,435.908,172.01,435.908z"/>
			</g>
		</g>
		<g>
			<path fill="#3A3847" d="M160.012,355.922c-62.544,0-79.745-82.37-79.909-83.206c-0.43-2.163,0.969-4.265,3.133-4.702
				c2.109-0.422,4.272,0.961,4.71,3.141c0.156,0.766,16.091,76.769,72.066,76.769c3.82,0,7.601-0.359,11.24-1.062
				c2.133-0.438,4.257,1,4.687,3.171c0.414,2.172-1,4.266-3.171,4.688C168.636,355.516,164.34,355.922,160.012,355.922z"/>
		</g>
		<g>
			<path fill="#3A3847" d="M188.008,227.95H28.034c-2.211,0-4-1.789-4-4c0-2.21,1.789-3.999,4-3.999h159.974c2.21,0,4,1.789,4,3.999
				C192.007,226.161,190.218,227.95,188.008,227.95z"/>
		</g>
		<g>
			<path fill="#3A3847" d="M475.966,131.958h-47.992c-2.211,0-4-1.789-4-4c0-2.21,1.789-3.999,4-3.999h47.992
				c2.211,0,3.999,1.789,3.999,3.999C479.965,130.169,478.177,131.958,475.966,131.958z"/>
		</g>
		<g>
			<path fill="#3A3847" d="M267.999,131.958h-47.997c-2.21,0-3.999-1.789-3.999-4c0-2.21,1.789-3.999,3.999-3.999h47.997
				c2.211,0,4,1.789,4,3.999C271.999,130.169,270.21,131.958,267.999,131.958z"/>
		</g>
		<g>
			<path fill="#3A3847" d="M387.979,131.958h-79.986c-2.211,0-4-1.789-4-4c0-2.21,1.789-3.999,4-3.999h79.986
				c2.211,0,4,1.789,4,3.999C391.979,130.169,390.19,131.958,387.979,131.958z"/>
		</g>
		<g>
			<path fill="#3A3847" d="M275.982,395.978c-1.023,0-2.047-0.391-2.827-1.172c-1.562-1.562-1.562-4.093,0-5.655l143.977-143.977
				c1.562-1.562,4.093-1.562,5.655,0c1.562,1.562,1.562,4.093,0,5.655L278.81,394.806
				C278.029,395.587,277.006,395.978,275.982,395.978z"/>
		</g>
		<g>
			<path fill="#3A3847" d="M391.979,395.978c-17.646,0-31.995-14.357-31.995-31.995s14.35-31.994,31.995-31.994
				s31.994,14.356,31.994,31.994S409.625,395.978,391.979,395.978z M391.979,339.986c-13.232,0-23.996,10.764-23.996,23.996
				s10.764,23.996,23.996,23.996s23.996-10.764,23.996-23.996S405.212,339.986,391.979,339.986z"/>
		</g>
		<g>
			<path fill="#3A3847" d="M303.993,307.992c-17.646,0-31.994-14.357-31.994-31.995c0-17.642,14.349-31.995,31.994-31.995
				c17.646,0,31.995,14.354,31.995,31.995C335.988,293.635,321.64,307.992,303.993,307.992z M303.993,252.001
				c-13.232,0-23.996,10.764-23.996,23.996c0,13.231,10.764,23.996,23.996,23.996s23.996-10.765,23.996-23.996
				C327.989,262.765,317.226,252.001,303.993,252.001z"/>
		</g>
	</g>
	<g opacity="0.2">
		<polygon points="479.965,135.957 216.003,135.957 212.004,143.956 483.965,143.956 		"/>
	</g>
</g>
</svg>
