<?xml version="1.0" encoding="utf-8"?>
<!-- Generator: Adobe Illustrator 16.0.0, SVG Export Plug-In . SVG Version: 6.00 Build 0)  -->
<!DOCTYPE svg PUBLIC "-//W3C//DTD SVG 1.1//EN" "http://www.w3.org/Graphics/SVG/1.1/DTD/svg11.dtd">
<svg version="1.1" id="Слой_1" xmlns="http://www.w3.org/2000/svg" xmlns:xlink="http://www.w3.org/1999/xlink" x="0px" y="0px"
	 width="512px" height="512px" viewBox="0 0 512 512" enable-background="new 0 0 512 512" xml:space="preserve">
<g id="_x31_2_school_x2C__university_x2C__clock_x2C__flag_x2C__building_x2C__architecture_1_">
	<g>
		<g>
			<polygon fill="#ED5564" points="467.969,252.001 44.03,252.001 4.036,323.99 507.963,323.99 			"/>
		</g>
	</g>
	<g opacity="0.2">
		<g>
			<polygon fill="#FFFFFF" points="44.03,252.001 4.036,323.99 20.034,323.99 60.028,252.001 			"/>
		</g>
	</g>
	<g opacity="0.2">
		<g>
			<polygon points="467.969,252.001 507.963,323.99 491.965,323.99 451.971,252.001 			"/>
		</g>
	</g>
	<g>
		<g>
			<rect x="212.005" y="212.006" fill="#CCD1D9" width="87.989" height="78.301"/>
		</g>
	</g>
	<g opacity="0.5">
		<g>
			<rect x="212.005" y="212.006" fill="#FFFFFF" width="15.998" height="83.488"/>
		</g>
	</g>
	<g opacity="0.2">
		<g>
			<rect x="283.996" y="212.006" width="15.998" height="83.488"/>
		</g>
	</g>
	<g>
		<g>
			<path fill="#FFCE54" d="M256,132.018c-11.045,0-19.997,8.952-19.997,19.997v19.997h39.994v-19.997
				C275.996,140.97,267.045,132.018,256,132.018z"/>
		</g>
	</g>
	<g opacity="0.5">
		<g>
			<path fill="#FFFFFF" d="M260,132.42c-1.293-0.262-2.629-0.402-4-0.402c-11.045,0-19.997,8.952-19.997,19.997v19.997h7.999
				v-19.997C244.001,142.341,250.871,134.275,260,132.42z"/>
		</g>
	</g>
	<g opacity="0.2">
		<g>
			<path d="M252,132.42c1.293-0.262,2.629-0.402,4-0.402c11.045,0,19.997,8.952,19.997,19.997v19.997h-7.998v-19.997
				C267.998,142.341,261.129,134.275,252,132.42z"/>
		</g>
	</g>
	<g>
		<g>
			<polygon fill="#656D78" points="256,84.025 196.008,124.02 315.99,124.02 			"/>
		</g>
	</g>
	<g opacity="0.2">
		<g>
			<polygon fill="#FFFFFF" points="256,84.025 196.008,124.02 212.005,124.02 263.998,89.356 			"/>
		</g>
	</g>
	<g opacity="0.2">
		<g>
			<polygon points="264.029,89.376 315.99,124.02 299.994,124.02 256.011,94.691 			"/>
		</g>
	</g>
	<g>
		<g>
			<rect x="256" y="20.034" fill="#ED5564" width="43.995" height="15.998"/>
		</g>
	</g>
	<g>
		<g>
			<polygon fill="#ED5564" points="355.984,52.03 283.996,52.03 299.994,36.032 355.984,36.032 347.986,44.031 			"/>
		</g>
	</g>
	<g>
		<g>
			<polygon fill="#E6E9ED" points="36.032,323.99 36.032,475.968 180.011,475.968 180.011,491.966 331.988,491.966 331.988,475.968 
				475.967,475.968 475.967,323.99 331.988,323.99 256,244.002 180.007,323.99 			"/>
		</g>
	</g>
	<g>
		<g>
			<rect x="28.033" y="475.968" fill="#CCD1D9" width="455.934" height="15.998"/>
		</g>
	</g>
	<g>
		<g>
			<polygon fill="#E6E9ED" points="331.988,323.99 331.988,323.99 256,244.002 180.011,323.99 180.011,475.968 180.011,491.966 
				331.988,491.966 331.988,475.968 			"/>
		</g>
	</g>
	<g>
		<g>
			<rect x="68.027" y="371.983" fill="#5D9CEC" width="79.989" height="63.99"/>
		</g>
	</g>
	<g>
		<g>
			<polygon fill="#FFFFFF" points="196.008,323.99 263.998,252.423 256,244.002 180.011,323.99 180.011,475.968 180.011,491.966 
				196.008,491.966 196.008,475.968 			"/>
		</g>
	</g>
	<g opacity="0.2">
		<g>
			<polygon points="315.99,323.99 256,260.843 263.99,252.411 331.988,323.99 331.988,475.968 331.988,491.966 315.99,491.966 
				315.99,475.968 			"/>
		</g>
	</g>
	<g>
		<g>
			<rect x="363.984" y="371.983" fill="#5D9CEC" width="79.988" height="63.99"/>
		</g>
	</g>
	<g>
		<g>
			<rect x="212.005" y="387.98" fill="#ED5564" width="87.989" height="95.986"/>
		</g>
	</g>
	<g>
		<g>
			<path fill="#FFCE54" d="M283.996,327.989c0,15.459-12.529,27.996-27.997,27.996c-15.463,0-27.996-12.537-27.996-27.996
				c0-15.458,12.533-27.995,27.996-27.995C271.467,299.994,283.996,312.531,283.996,327.989z"/>
		</g>
	</g>
	<g opacity="0.5">
		<g>
			<path fill="#FFFFFF" d="M236.002,327.989c0-14.092,10.444-25.637,23.998-27.59c-1.316-0.195-2.629-0.405-4-0.405
				c-15.463,0-27.996,12.537-27.996,27.995c0,15.459,12.533,27.996,27.996,27.996c1.372,0,2.684-0.211,4-0.406
				C246.447,353.627,236.002,342.081,236.002,327.989z"/>
		</g>
	</g>
	<g opacity="0.2">
		<g>
			<path d="M275.996,327.989c0,14.092-10.443,25.638-23.997,27.59c1.316,0.195,2.629,0.406,4,0.406
				c15.467,0,27.997-12.537,27.997-27.996c0-15.458-12.529-27.995-27.997-27.995c-1.371,0-2.684,0.21-4,0.405
				C265.553,302.353,275.996,313.897,275.996,327.989z"/>
		</g>
	</g>
	<g opacity="0.5">
		<g>
			<rect x="28.033" y="475.968" fill="#FFFFFF" width="15.998" height="15.998"/>
		</g>
	</g>
	<g>
		<g>
			<rect x="36.032" y="323.99" fill="#FFFFFF" width="15.998" height="151.978"/>
		</g>
	</g>
	<g opacity="0.2">
		<g>
			<rect x="459.971" y="323.99" width="15.996" height="151.978"/>
		</g>
	</g>
	<g opacity="0.2">
		<g>
			<rect x="467.969" y="475.968" width="15.998" height="15.998"/>
		</g>
	</g>
	<g opacity="0.3">
		<g>
			<rect x="212.005" y="387.98" fill="#FFFFFF" width="8" height="95.986"/>
		</g>
	</g>
	<g opacity="0.2">
		<g>
			<rect x="291.994" y="387.98" width="8" height="95.986"/>
		</g>
	</g>
	<g opacity="0.2">
		<g>
			<rect x="172.011" y="323.99" width="7.996" height="167.976"/>
		</g>
	</g>
	<g opacity="0.2">
		<g>
			<rect x="331.988" y="323.99" width="8" height="167.976"/>
		</g>
	</g>
	<g>
		<g>
			<polygon fill="#656D78" points="315.99,499.965 196.008,499.965 204.007,483.967 307.992,483.967 			"/>
		</g>
	</g>
	<g opacity="0.3">
		<g>
			<polygon fill="#FFFFFF" points="92.023,435.974 108.583,435.974 125.729,371.983 109.169,371.983 			"/>
		</g>
	</g>
	<g opacity="0.3">
		<g>
			<polygon fill="#FFFFFF" points="387.98,435.974 404.541,435.974 421.688,371.983 405.127,371.983 			"/>
		</g>
	</g>
	<g id="_x31_2_school_x2C__university_x2C__clock_x2C__flag_x2C__building_x2C__architecture">
		<g>
			<g>
				<path fill="#3A3847" d="M180.011,327.989H4.036c-2.21,0-3.999-1.788-3.999-3.999s1.789-4,3.999-4h175.975
					c2.21,0,3.998,1.789,3.998,4S182.221,327.989,180.011,327.989z"/>
			</g>
		</g>
		<g>
			<g>
				<path fill="#3A3847" d="M507.963,327.989H331.988c-2.211,0-3.998-1.788-3.998-3.999s1.787-4,3.998-4h175.975
					c2.211,0,4,1.789,4,4S510.174,327.989,507.963,327.989z"/>
			</g>
		</g>
		<g>
			<g>
				<path fill="#3A3847" d="M4.032,327.989c-0.656,0-1.324-0.164-1.937-0.5c-1.933-1.077-2.628-3.507-1.554-5.444l39.994-71.985
					c1.07-1.934,3.515-2.633,5.437-1.555c1.933,1.074,2.628,3.508,1.555,5.437L7.532,325.936
					C6.802,327.247,5.438,327.989,4.032,327.989z"/>
			</g>
		</g>
		<g>
			<g>
				<path fill="#3A3847" d="M507.963,327.989c-1.406,0-2.766-0.742-3.5-2.054l-39.994-71.994c-1.07-1.929-0.375-4.362,1.563-5.437
					c1.922-1.078,4.359-0.379,5.438,1.555l39.994,71.985c1.07,1.938,0.375,4.367-1.563,5.444
					C509.291,327.825,508.619,327.989,507.963,327.989z"/>
			</g>
		</g>
		<g>
			<g>
				<path fill="#3A3847" d="M196.008,256H44.03c-2.21,0-3.999-1.789-3.999-3.999c0-2.211,1.789-4,3.999-4h151.978
					c2.21,0,3.999,1.789,3.999,4C200.007,254.211,198.218,256,196.008,256z"/>
			</g>
		</g>
		<g>
			<g>
				<path fill="#3A3847" d="M180.011,487.966c-2.211,0-4-1.788-4-3.999V323.99c0-2.211,1.789-4,4-4c2.21,0,3.998,1.789,3.998,4
					v159.977C184.009,486.178,182.221,487.966,180.011,487.966z"/>
			</g>
		</g>
		<g>
			<g>
				<path fill="#3A3847" d="M331.988,487.966c-2.211,0-3.998-1.788-3.998-3.999V323.99c0-2.211,1.787-4,3.998-4s4,1.789,4,4v159.977
					C335.988,486.178,334.199,487.966,331.988,487.966z"/>
			</g>
		</g>
		<g>
			<g>
				<path fill="#3A3847" d="M180.011,327.989c-0.988,0-1.98-0.367-2.754-1.101c-1.602-1.523-1.668-4.055-0.145-5.656l75.988-79.984
					c1.52-1.597,4.051-1.671,5.653-0.145c1.602,1.52,1.668,4.05,0.145,5.651l-75.99,79.993
					C182.124,327.575,181.07,327.989,180.011,327.989z"/>
			</g>
		</g>
		<g>
			<g>
				<path fill="#3A3847" d="M331.988,327.989c-1.063,0-2.109-0.414-2.898-1.241l-75.989-79.993
					c-1.523-1.602-1.457-4.132,0.145-5.651c1.605-1.522,4.141-1.452,5.653,0.145l75.988,79.984c1.523,1.602,1.461,4.133-0.148,5.656
					C333.973,327.622,332.973,327.989,331.988,327.989z"/>
			</g>
		</g>
		<g>
			<g>
				<path fill="#3A3847" d="M36.032,479.967c-2.21,0-4-1.788-4-3.999V331.988c0-2.21,1.789-3.999,4-3.999s4,1.789,4,3.999v143.979
					C40.031,478.179,38.242,479.967,36.032,479.967z"/>
			</g>
		</g>
		<g>
			<g>
				<path fill="#3A3847" d="M475.967,479.967c-2.209,0-3.998-1.788-3.998-3.999V331.988c0-2.21,1.789-3.999,3.998-3.999
					c2.211,0,4,1.789,4,3.999v143.979C479.967,478.179,478.178,479.967,475.967,479.967z"/>
			</g>
		</g>
		<g>
			<g>
				<path fill="#3A3847" d="M148.016,439.973H68.027c-2.21,0-4-1.788-4-3.999v-63.99c0-2.211,1.789-4,4-4h79.989
					c2.21,0,3.999,1.789,3.999,4v63.99C152.015,438.185,150.226,439.973,148.016,439.973z M72.026,431.975h71.989v-55.992H72.026
					V431.975z"/>
			</g>
		</g>
		<g>
			<g>
				<path fill="#3A3847" d="M108.021,431.975c-2.21,0-4-1.789-4-4v-47.992c0-2.211,1.789-4,4-4s4,1.789,4,4v47.992
					C112.021,430.186,110.231,431.975,108.021,431.975z"/>
			</g>
		</g>
		<g>
			<g>
				<path fill="#3A3847" d="M140.017,407.978H76.026c-2.21,0-4-1.788-4-3.999s1.789-4,4-4h63.991c2.21,0,3.999,1.789,3.999,4
					S142.227,407.978,140.017,407.978z"/>
			</g>
		</g>
		<g>
			<g>
				<path fill="#3A3847" d="M443.973,439.973h-79.988c-2.211,0-4-1.788-4-3.999v-63.99c0-2.211,1.789-4,4-4h79.988
					c2.211,0,4,1.789,4,4v63.99C447.973,438.185,446.184,439.973,443.973,439.973z M367.984,431.975h71.988v-55.992h-71.988V431.975
					z"/>
			</g>
		</g>
		<g>
			<g>
				<path fill="#3A3847" d="M403.979,431.975c-2.211,0-4-1.789-4-4v-47.992c0-2.211,1.789-4,4-4s4,1.789,4,4v47.992
					C407.979,430.186,406.189,431.975,403.979,431.975z"/>
			</g>
		</g>
		<g>
			<g>
				<path fill="#3A3847" d="M435.973,407.978h-63.99c-2.211,0-3.998-1.788-3.998-3.999s1.787-4,3.998-4h63.99c2.211,0,4,1.789,4,4
					S438.184,407.978,435.973,407.978z"/>
			</g>
		</g>
		<g>
			<g>
				<path fill="#3A3847" d="M60.028,479.967H28.033c-2.21,0-4-1.788-4-3.999c0-2.21,1.789-3.999,4-3.999h31.996
					c2.21,0,3.999,1.789,3.999,3.999C64.027,478.179,62.239,479.967,60.028,479.967z"/>
			</g>
		</g>
		<g>
			<g>
				<path fill="#3A3847" d="M483.967,479.967h-31.996c-2.211,0-3.998-1.788-3.998-3.999c0-2.21,1.787-3.999,3.998-3.999h31.996
					c2.211,0,4,1.789,4,3.999C487.967,478.179,486.178,479.967,483.967,479.967z"/>
			</g>
		</g>
		<g>
			<g>
				<path fill="#3A3847" d="M212.005,479.967c-2.21,0-3.998-1.788-3.998-3.999V387.98c0-2.211,1.788-3.999,3.998-3.999
					c2.211,0,4,1.788,4,3.999v87.987C216.005,478.179,214.216,479.967,212.005,479.967z"/>
			</g>
		</g>
		<g>
			<g>
				<path fill="#3A3847" d="M299.994,391.98h-87.989c-2.21,0-3.998-1.789-3.998-4s1.788-3.999,3.998-3.999h87.989
					c2.209,0,3.998,1.788,3.998,3.999S302.203,391.98,299.994,391.98z"/>
			</g>
		</g>
		<g>
			<g>
				<path fill="#3A3847" d="M299.994,479.967c-2.211,0-4-1.788-4-3.999V387.98c0-2.211,1.789-3.999,4-3.999
					c2.209,0,3.998,1.788,3.998,3.999v87.987C303.992,478.179,302.203,479.967,299.994,479.967z"/>
			</g>
		</g>
		<g>
			<g>
				<path fill="#3A3847" d="M307.992,487.966H204.007c-2.211,0-4-1.788-4-3.999s1.789-4,4-4h103.985c2.211,0,4,1.789,4,4
					S310.203,487.966,307.992,487.966z"/>
			</g>
		</g>
		<g>
			<g>
				<path fill="#3A3847" d="M315.99,503.964H196.008c-2.21,0-3.999-1.789-3.999-3.999c0-2.211,1.789-4,3.999-4H315.99
					c2.211,0,4,1.789,4,4C319.99,502.175,318.201,503.964,315.99,503.964z"/>
			</g>
		</g>
		<g>
			<g>
				<path fill="#3A3847" d="M28.033,495.965c-2.21,0-4-1.789-4-3.999v-15.998c0-2.21,1.789-3.999,4-3.999s4,1.789,4,3.999v15.998
					C32.032,494.176,30.243,495.965,28.033,495.965z"/>
			</g>
		</g>
		<g>
			<g>
				<path fill="#3A3847" d="M188.009,495.965H28.033c-2.21,0-4-1.789-4-3.999c0-2.211,1.789-4,4-4h159.977c2.211,0,4,1.789,4,4
					C192.009,494.176,190.22,495.965,188.009,495.965z"/>
			</g>
		</g>
		<g>
			<g>
				<path fill="#3A3847" d="M483.967,495.965c-2.211,0-4-1.789-4-3.999v-15.998c0-2.21,1.789-3.999,4-3.999s4,1.789,4,3.999v15.998
					C487.967,494.176,486.178,495.965,483.967,495.965z"/>
			</g>
		</g>
		<g>
			<g>
				<path fill="#3A3847" d="M483.967,495.965H323.99c-2.211,0-4-1.789-4-3.999c0-2.211,1.789-4,4-4h159.977c2.211,0,4,1.789,4,4
					C487.967,494.176,486.178,495.965,483.967,495.965z"/>
			</g>
		</g>
		<g>
			<g>
				<path fill="#3A3847" d="M467.969,256H315.99c-2.209,0-3.998-1.789-3.998-3.999c0-2.211,1.789-4,3.998-4h151.979
					c2.211,0,4,1.789,4,4C471.969,254.211,470.18,256,467.969,256z"/>
			</g>
		</g>
		<g>
			<g>
				<path fill="#3A3847" d="M256,359.984c-17.643,0-31.996-14.35-31.996-31.995s14.354-31.995,31.996-31.995
					c17.639,0,31.997,14.35,31.997,31.995S273.639,359.984,256,359.984z M256,303.993c-13.232,0-23.996,10.764-23.996,23.996
					s10.764,23.997,23.996,23.997c13.233,0,23.997-10.765,23.997-23.997S269.232,303.993,256,303.993z"/>
			</g>
		</g>
		<g>
			<g>
				<path fill="#3A3847" d="M256,331.988c-2.211,0-4-1.788-4-3.999v-19.997c0-2.211,1.789-3.999,4-3.999c2.211,0,4,1.788,4,3.999
					v19.997C260,330.2,258.211,331.988,256,331.988z"/>
			</g>
		</g>
		<g>
			<g>
				<path fill="#3A3847" d="M270.139,346.127c-1.023,0-2.047-0.391-2.828-1.171l-14.139-14.139c-1.563-1.563-1.563-4.093,0-5.655
					s4.094-1.563,5.657,0l14.139,14.139c1.563,1.562,1.563,4.093,0,5.655C272.186,345.736,271.162,346.127,270.139,346.127z"/>
			</g>
		</g>
		<g>
			<g>
				<path fill="#3A3847" d="M256,479.967c-2.211,0-4-1.788-4-3.999V387.98c0-2.211,1.789-3.999,4-3.999c2.211,0,4,1.788,4,3.999
					v87.987C260,478.179,258.211,479.967,256,479.967z"/>
			</g>
		</g>
		<g>
			<g>
				<path fill="#3A3847" d="M212.005,287.995c-2.21,0-3.998-1.788-3.998-3.999V124.02c0-2.211,1.788-4,3.998-4c2.211,0,4,1.789,4,4
					v159.977C216.005,286.207,214.216,287.995,212.005,287.995z"/>
			</g>
		</g>
		<g>
			<g>
				<path fill="#3A3847" d="M299.994,287.995c-2.211,0-4-1.788-4-3.999V124.02c0-2.211,1.789-4,4-4c2.209,0,3.998,1.789,3.998,4
					v159.977C303.992,286.207,302.203,287.995,299.994,287.995z"/>
			</g>
		</g>
		<g>
			<g>
				<path fill="#3A3847" d="M315.99,128.019H196.008c-2.21,0-3.999-1.789-3.999-3.999c0-2.211,1.789-4,3.999-4H315.99
					c2.211,0,4,1.789,4,4C319.99,126.23,318.201,128.019,315.99,128.019z"/>
			</g>
		</g>
		<g>
			<g>
				<path fill="#3A3847" d="M196.012,128.019c-1.292,0-2.562-0.625-3.331-1.781c-1.227-1.839-0.73-4.32,1.109-5.546l59.99-39.994
					c1.844-1.23,4.317-0.73,5.547,1.109c1.227,1.84,0.73,4.32-1.109,5.546l-59.993,39.994
					C197.542,127.8,196.773,128.019,196.012,128.019z"/>
			</g>
		</g>
		<g>
			<g>
				<path fill="#3A3847" d="M315.99,128.019c-0.764,0-1.529-0.219-2.217-0.672l-59.993-39.994c-1.84-1.226-2.336-3.706-1.109-5.546
					c1.219-1.84,3.699-2.339,5.547-1.109l59.99,39.994c1.844,1.227,2.336,3.707,1.109,5.546
					C318.553,127.394,317.279,128.019,315.99,128.019z"/>
			</g>
		</g>
		<g>
			<g>
				<path fill="#3A3847" d="M307.992,216.006H204.007c-2.211,0-4-1.789-4-4s1.789-4,4-4h103.985c2.211,0,4,1.789,4,4
					S310.203,216.006,307.992,216.006z"/>
			</g>
		</g>
		<g>
			<g>
				<path fill="#3A3847" d="M307.992,200.008H204.007c-2.211,0-4-1.788-4-3.999s1.789-4,4-4h103.985c2.211,0,4,1.789,4,4
					S310.203,200.008,307.992,200.008z"/>
			</g>
		</g>
		<g>
			<g>
				<path fill="#3A3847" d="M275.996,176.012h-39.994c-2.21,0-3.999-1.789-3.999-4v-19.997c0-13.232,10.764-23.997,23.996-23.997
					c13.233,0,23.997,10.764,23.997,23.997v19.997C279.996,174.223,278.207,176.012,275.996,176.012z M240.001,168.013h31.997
					v-15.998c0-8.823-7.172-15.998-15.999-15.998c-8.822,0-15.998,7.175-15.998,15.998V168.013z"/>
			</g>
		</g>
		<g>
			<g>
				<path fill="#3A3847" d="M256,184.011c-2.211,0-4-1.789-4-4v-7.999c0-2.21,1.789-4,4-4c2.211,0,4,1.789,4,4v7.999
					C260,182.222,258.211,184.011,256,184.011z"/>
			</g>
		</g>
		<g>
			<g>
				<path fill="#3A3847" d="M256,216.006c-2.211,0-4-1.789-4-4v-15.998c0-2.211,1.789-4,4-4c2.211,0,4,1.789,4,4v15.998
					C260,214.217,258.211,216.006,256,216.006z"/>
			</g>
		</g>
		<g>
			<g>
				<path fill="#3A3847" d="M283.996,216.006c-2.211,0-4-1.789-4-4v-15.998c0-2.211,1.789-4,4-4s4,1.789,4,4v15.998
					C287.996,214.217,286.207,216.006,283.996,216.006z"/>
			</g>
		</g>
		<g>
			<g>
				<path fill="#3A3847" d="M228.003,216.006c-2.211,0-4-1.789-4-4v-15.998c0-2.211,1.789-4,4-4s4,1.789,4,4v15.998
					C232.003,214.217,230.214,216.006,228.003,216.006z"/>
			</g>
		</g>
		<g>
			<g>
				<path fill="#3A3847" d="M256,88.024c-2.211,0-4-1.789-4-3.999v-71.99c0-2.21,1.789-4,4-4c2.211,0,4,1.789,4,4v71.99
					C260,86.235,258.211,88.024,256,88.024z"/>
			</g>
		</g>
		<g>
			<g>
				<path fill="#3A3847" d="M457.307,279.996H323.99c-2.211,0-4-1.788-4-3.999s1.789-3.999,4-3.999h133.316c2.211,0,4,1.788,4,3.999
					S459.518,279.996,457.307,279.996z"/>
			</g>
		</g>
		<g>
			<g>
				<path fill="#3A3847" d="M470.633,303.993H333.191c-2.211,0-4-1.789-4-3.999c0-2.211,1.789-4,4-4h137.441c2.211,0,4,1.789,4,4
					C474.633,302.204,472.844,303.993,470.633,303.993z"/>
			</g>
		</g>
		<g>
			<g>
				<path fill="#3A3847" d="M188.009,279.996H54.693c-2.21,0-4-1.788-4-3.999s1.789-3.999,4-3.999h133.316c2.211,0,4,1.788,4,3.999
					S190.22,279.996,188.009,279.996z"/>
			</g>
		</g>
		<g>
			<g>
				<path fill="#3A3847" d="M178.808,303.993H41.367c-2.21,0-4-1.789-4-3.999c0-2.211,1.789-4,4-4h137.441
					c2.211,0,3.999,1.789,3.999,4C182.807,302.204,181.019,303.993,178.808,303.993z"/>
			</g>
		</g>
		<g>
			<g>
				<path fill="#3A3847" d="M299.994,24.034h-35.996c-2.211,0-3.998-1.789-3.998-4c0-2.21,1.787-3.999,3.998-3.999h35.996
					c2.209,0,3.998,1.789,3.998,3.999C303.992,22.245,302.203,24.034,299.994,24.034z"/>
			</g>
		</g>
		<g>
			<g>
				<path fill="#3A3847" d="M299.994,40.031c-2.211,0-4-1.789-4-3.999V20.034c0-2.21,1.789-3.999,4-3.999
					c2.209,0,3.998,1.789,3.998,3.999v15.998C303.992,38.243,302.203,40.031,299.994,40.031z"/>
			</g>
		</g>
		<g>
			<g>
				<path fill="#3A3847" d="M299.994,40.031h-35.996c-2.211,0-3.998-1.789-3.998-3.999c0-2.211,1.787-4,3.998-4h35.996
					c2.209,0,3.998,1.789,3.998,4C303.992,38.243,302.203,40.031,299.994,40.031z"/>
			</g>
		</g>
		<g>
			<g>
				<path fill="#3A3847" d="M355.984,40.031H315.99c-2.209,0-3.998-1.789-3.998-3.999c0-2.211,1.789-4,3.998-4h39.994
					c2.211,0,4,1.789,4,4C359.984,38.243,358.195,40.031,355.984,40.031z"/>
			</g>
		</g>
		<g>
			<g>
				<path fill="#3A3847" d="M347.986,48.03c-1.023,0-2.047-0.391-2.828-1.172c-1.563-1.562-1.563-4.093,0-5.655l8-7.999
					c1.563-1.562,4.092-1.562,5.654,0c1.563,1.563,1.563,4.094,0,5.656l-7.998,7.999C350.033,47.64,349.01,48.03,347.986,48.03z"/>
			</g>
		</g>
		<g>
			<g>
				<path fill="#3A3847" d="M355.984,56.029c-1.021,0-2.045-0.391-2.826-1.172l-8-7.999c-1.563-1.562-1.563-4.093,0-5.655
					s4.094-1.563,5.656,0l7.998,7.999c1.563,1.563,1.563,4.093,0,5.655C358.031,55.639,357.008,56.029,355.984,56.029z"/>
			</g>
		</g>
		<g>
			<g>
				<path fill="#3A3847" d="M355.984,56.029h-71.988c-2.211,0-4-1.789-4-4s1.789-4,4-4h71.988c2.211,0,4,1.789,4,4
					S358.195,56.029,355.984,56.029z"/>
			</g>
		</g>
		<g>
			<g>
				<path fill="#3A3847" d="M283.996,56.029c-1.023,0-2.047-0.391-2.828-1.172c-1.563-1.563-1.563-4.093,0-5.655l7.998-7.999
					c1.563-1.563,4.094-1.563,5.656,0s1.563,4.093,0,5.655l-7.998,7.999C286.043,55.639,285.02,56.029,283.996,56.029z"/>
			</g>
		</g>
		<g>
			<g>
				<path fill="#3A3847" d="M244.001,447.972c-2.211,0-4-1.788-4-3.999v-15.998c0-2.211,1.789-3.999,4-3.999s4,1.788,4,3.999v15.998
					C248.001,446.184,246.212,447.972,244.001,447.972z"/>
			</g>
		</g>
		<g>
			<g>
				<path fill="#3A3847" d="M267.998,447.972c-2.211,0-4-1.788-4-3.999v-15.998c0-2.211,1.789-3.999,4-3.999s4,1.788,4,3.999v15.998
					C271.998,446.184,270.209,447.972,267.998,447.972z"/>
			</g>
		</g>
	</g>
</g>
</svg>
